PathFileType	4	(X/Y/Z)	C:/Users/opensim2020/Desktop/walking_exp_matlab/subject03/subject03_trc/subject03_walking16_run_cyclic.trc	
DataRate	CameraRate	NumFrames	NumMarkers	Units	OrigDataRate	OrigDataStartFrame	OrigNumFrames	
100.00	100.00	8	49	mm	100.00	194	67	
Frame#	Time	RKNE			RTOE			RWRB			LTHI			RELB			RFRM			RUPA			RASI			LTIB			RWRA			RTHI			LSHO			LTOE			RTIB			LWRA			CLAV			LASI			RSHO			RFHD			STRN			LHEE			RFIN			RBHD			LFRM			C7			LWRB			LFIN			LUPA			LBHD			LELB			RANK			RHEE			RBAK			LPSI			T10			LFHD			RPSI			LKNE			LANK			*39			*40			*41			*42			*43			*44			*45			*46			*47			*48			
		X1	Y1	Z1	X2	Y2	Z2	X3	Y3	Z3	X4	Y4	Z4	X5	Y5	Z5	X6	Y6	Z6	X7	Y7	Z7	X8	Y8	Z8	X9	Y9	Z9	X10	Y10	Z10	X11	Y11	Z11	X12	Y12	Z12	X13	Y13	Z13	X14	Y14	Z14	X15	Y15	Z15	X16	Y16	Z16	X17	Y17	Z17	X18	Y18	Z18	X19	Y19	Z19	X20	Y20	Z20	X21	Y21	Z21	X22	Y22	Z22	X23	Y23	Z23	X24	Y24	Z24	X25	Y25	Z25	X26	Y26	Z26	X27	Y27	Z27	X28	Y28	Z28	X29	Y29	Z29	X30	Y30	Z30	X31	Y31	Z31	X32	Y32	Z32	X33	Y33	Z33	X34	Y34	Z34	X35	Y35	Z35	X36	Y36	Z36	X37	Y37	Z37	X38	Y38	Z38	X39	Y39	Z39	X40	Y40	Z40	X41	Y41	Z41	X42	Y42	Z42	X43	Y43	Z43	X44	Y44	Z44	X45	Y45	Z45	X46	Y46	Z46	X47	Y47	Z47	X48	Y48	Z48	X49	Y49	Z49	

1	0.000	330.30115	-1628.94568	407.88885	232.09525	-1797.85449	29.82998	405.56601	-1381.50989	947.78632	54.88459	-1516.48608	596.12415	487.43228	-1572.90698	1028.88757	443.99329	-1464.39514	984.25549	469.58981	-1589.98816	1118.70850	334.89453	-1562.62415	876.67505	76.79016	-1571.83826	319.57361	379.27673	-1387.24292	994.31152	369.84613	-1643.12964	588.54022	65.51273	-1547.25098	1338.43872	122.32175	-1656.56128	72.87573	316.55411	-1756.44043	262.22870	3.60365	-1596.80115	879.68695	213.49841	-1487.38452	1280.39453	97.42430	-1545.71240	871.72150	369.84799	-1545.28796	1320.43652	286.09369	-1509.49658	1577.70801	207.51398	-1466.87488	1108.81555	119.38876	-1799.23950	190.72447	378.63376	-1315.54443	960.81329	276.29401	-1615.06714	1500.86755	-56.83026	-1627.57983	985.07465	209.16335	-1613.36316	1363.47388	-52.94564	-1582.08386	883.20007	-38.12704	-1590.67432	792.76135	-46.99397	-1643.29932	1196.58936	146.11246	-1604.70386	1497.62732	-81.42474	-1682.56274	1092.40479	258.42532	-1908.24780	114.48140	208.41774	-1963.27405	115.27779	303.23346	-1677.58582	1199.02234	130.40691	-1704.75830	918.71021	204.09915	-1682.21802	1062.67700	153.47021	-1494.29260	1574.83643	280.02029	-1711.28894	935.12933	95.20003	-1426.90869	442.75446	90.70815	-1736.58533	189.09520																						195.70508	-1596.10388	1608.71753						 
2	0.010	330.96756	-1617.27185	411.28555	232.19835	-1796.80872	29.82690	397.71667	-1340.57617	972.09406	56.52571	-1479.78210	604.47241	485.12119	-1535.02087	1035.57629	438.36902	-1425.24988	1000.82642	468.06317	-1552.45325	1123.75574	335.94827	-1530.29761	879.49628	79.31197	-1517.84900	318.52863	372.93759	-1350.13269	1018.63330	370.36807	-1621.23096	592.13696	66.90475	-1520.39417	1344.88635	128.38734	-1580.15613	66.16659	317.79337	-1748.17810	268.23413	-2.34137	-1581.62830	893.51819	212.60777	-1457.31848	1285.45325	98.92121	-1514.25549	877.41248	369.30310	-1513.18335	1326.98242	286.02322	-1479.37268	1582.33362	206.73480	-1435.90833	1113.97583	121.68259	-1733.49487	169.15192	370.14911	-1275.97900	990.80182	276.21133	-1585.10632	1505.78357	-62.87273	-1611.05237	998.88879	210.63350	-1583.52979	1367.88293	-59.41977	-1568.57056	895.70337	-42.88204	-1577.75439	805.84265	-48.73485	-1619.20129	1209.01746	146.03738	-1574.85950	1502.62585	-85.58257	-1662.67029	1107.48889	259.98325	-1901.81567	122.68013	210.02446	-1955.90955	125.73898	306.27151	-1645.13684	1203.52502	132.80151	-1673.32019	923.81641	207.21597	-1650.82996	1066.45508	153.45343	-1464.15967	1579.50647	282.77869	-1678.68530	938.63330	97.76558	-1384.33215	455.57809	93.47018	-1671.67773	173.93356																						195.76103	-1565.90125	1613.70349						 
3	0.020	331.97748	-1604.47900	416.38586	231.93440	-1795.64624	29.52054	390.23044	-1302.12451	995.87366	57.91081	-1442.87988	613.49506	482.82498	-1497.61072	1043.25964	432.96262	-1387.83948	1017.78711	466.25031	-1515.13599	1129.99695	336.68054	-1496.75891	882.79120	81.95528	-1464.30371	317.21933	367.11487	-1315.05334	1042.35242	371.07193	-1597.96655	596.85583	68.26311	-1493.04590	1352.03162	134.97963	-1503.31262	60.17753	319.39749	-1738.91577	275.78946	-7.02881	-1565.05615	908.00153	211.50763	-1427.33704	1291.43164	100.55285	-1481.90198	884.18860	368.41965	-1480.79016	1334.11414	285.91754	-1449.21912	1587.68396	205.45074	-1404.68091	1119.96094	125.64098	-1665.33679	148.30946	362.53464	-1239.40576	1019.77563	276.01553	-1555.10925	1511.40674	-67.22203	-1592.56641	1013.83118	211.98076	-1553.66736	1372.90466	-63.83189	-1553.34241	909.30188	-45.91275	-1563.03015	819.75629	-50.03492	-1593.95813	1221.70398	145.84808	-1544.77881	1508.30542	-88.88113	-1641.69775	1123.06689	261.93304	-1893.76123	131.74898	211.89430	-1946.46667	136.99715	309.12476	-1612.34229	1208.59277	135.26697	-1641.19849	929.55481	210.77382	-1618.99695	1070.77258	153.36879	-1433.97034	1584.93237	285.59061	-1645.21741	942.64349	100.16475	-1344.02405	467.88074	97.78634	-1604.50671	158.75026																						195.70403	-1535.52820	1619.25989						 
4	0.030	333.30936	-1590.60315	423.06805	232.08006	-1794.07288	29.43186	382.69458	-1266.09741	1018.37170	59.18407	-1405.83374	623.19281	480.65915	-1460.93982	1051.70239	427.85562	-1351.91675	1034.30261	464.09894	-1478.14148	1136.84265	337.16360	-1462.04395	886.75781	85.23908	-1412.29895	316.00333	361.34985	-1281.88867	1064.54077	371.89172	-1573.40625	602.56366	69.50962	-1465.04980	1359.59851	141.92824	-1426.20630	55.19654	321.60260	-1728.61377	284.84344	-9.07728	-1547.27625	923.35687	210.59018	-1397.39929	1297.74927	102.52376	-1449.17004	891.38647	367.32083	-1448.60339	1341.91956	285.68286	-1418.97095	1593.53552	204.02789	-1373.27563	1126.51746	130.72479	-1595.60742	128.16168	355.75522	-1204.92053	1046.95837	275.71576	-1524.96399	1517.50806	-69.23282	-1573.22119	1029.03284	213.03397	-1523.73767	1378.36206	-66.38002	-1536.12439	923.59479	-47.45322	-1546.61414	834.16980	-50.45597	-1567.62915	1234.01965	145.57513	-1514.62793	1514.51843	-91.10809	-1619.33472	1138.29663	264.75085	-1883.70142	141.22060	214.41557	-1934.52051	148.81877	311.76810	-1579.34241	1214.11584	137.74776	-1608.50391	935.81201	214.53564	-1586.82935	1075.48596	153.21559	-1403.76538	1590.88733	288.29489	-1610.90820	946.96198	102.19546	-1305.92114	479.36472	103.58585	-1538.52527	142.58014																						195.56532	-1505.19531	1625.40735						 
5	0.040	334.75674	-1575.57935	431.10663	232.52740	-1792.23511	29.27984	376.19040	-1231.66626	1039.39990	60.51285	-1368.96240	633.29413	478.76904	-1425.06226	1060.53894	423.11218	-1317.27502	1049.90417	462.08981	-1442.06763	1144.19824	337.46039	-1426.52405	891.14124	88.33958	-1362.05298	314.96213	356.02271	-1249.84509	1085.16418	372.87115	-1547.83398	609.13049	70.78642	-1436.40479	1367.21069	149.19295	-1348.85242	51.46328	324.41132	-1717.02698	295.09741	-10.40812	-1527.35254	938.42181	209.68817	-1367.15002	1304.55444	103.61368	-1414.65369	900.01202	366.09988	-1416.28357	1349.68567	285.41949	-1388.72314	1599.48657	202.31351	-1341.42822	1133.52136	137.50449	-1523.95239	109.04686	349.47696	-1172.47424	1072.00122	275.33792	-1494.83557	1523.88049	-70.51017	-1551.71680	1044.64697	213.97340	-1493.90942	1384.12476	-67.94807	-1516.27637	937.99109	-47.86466	-1528.32813	848.39087	-50.79991	-1540.50049	1246.41870	145.25031	-1484.41943	1520.95239	-92.35885	-1595.83826	1153.45557	268.14725	-1870.98621	150.31778	217.63826	-1919.80811	160.68605	314.16809	-1546.18201	1219.99023	140.34456	-1575.06946	942.09363	218.32813	-1554.46191	1080.43652	153.05278	-1373.47607	1596.94067	290.85309	-1575.74890	951.41852	103.99952	-1269.75464	489.59427	108.68325	-1466.25610	129.83211																						195.36917	-1474.82239	1631.84753						 
6	0.050	335.88693	-1559.23206	440.22333	233.35904	-1790.07349	29.07264	370.20221	-1198.87744	1058.33105	61.88606	-1332.56580	643.38000	477.11023	-1390.36560	1069.52563	419.01007	-1283.89343	1064.45020	460.63669	-1407.20508	1151.75586	337.58206	-1390.34863	895.61200	91.09391	-1313.46106	313.65686	352.31537	-1219.57251	1103.95496	373.67279	-1521.52954	616.18268	71.88593	-1406.98169	1374.50659	156.04053	-1272.74512	48.32774	327.77454	-1703.59521	306.31555	-10.63431	-1504.97339	952.63940	208.79521	-1336.93372	1311.31189	105.13946	-1380.07141	908.17908	364.89157	-1383.86829	1357.14978	285.09137	-1358.38525	1605.21765	200.82491	-1309.66553	1140.49841	145.10971	-1451.52234	93.24397	343.79019	-1141.61450	1094.20142	274.91455	-1464.72949	1530.17212	-70.59857	-1528.71802	1059.47534	214.46086	-1463.47437	1389.70911	-67.89776	-1494.84778	951.23346	-47.00879	-1508.04102	861.85938	-50.90448	-1512.87842	1258.47498	144.86884	-1454.22363	1527.32861	-92.88182	-1571.40393	1167.87476	272.65076	-1855.84741	158.68800	221.58231	-1901.77344	172.14391	316.27231	-1513.05396	1226.13562	143.27980	-1540.79089	948.27167	221.89536	-1521.88538	1085.50208	152.86916	-1343.17102	1602.82751	293.36536	-1540.03345	955.98907	105.43233	-1235.32251	498.16748	115.52560	-1396.72449	118.12946																						195.17421	-1444.22351	1638.13293						 
7	0.060	336.45532	-1541.29565	449.88388	234.41840	-1787.95154	28.51230	364.90228	-1167.29883	1074.80798	63.51381	-1296.91687	652.66016	475.58896	-1356.71863	1078.01624	415.58295	-1251.53882	1077.50537	459.91269	-1373.57495	1159.24414	337.77228	-1353.84277	900.00159	93.50358	-1266.62402	311.72318	348.97919	-1189.62524	1120.46643	374.19803	-1494.53064	623.25781	72.83151	-1376.83447	1381.10315	162.83377	-1198.11902	46.10021	331.04752	-1687.86707	317.44540	-10.26325	-1480.60046	965.71484	208.02165	-1306.53040	1317.77930	106.63601	-1345.25256	916.15619	363.64340	-1351.72693	1364.32825	284.88068	-1328.00269	1610.37305	199.50400	-1277.70569	1147.24146	153.66763	-1379.79224	80.33995	338.25061	-1111.70068	1113.19995	274.50034	-1434.64099	1536.02576	-70.21457	-1503.95581	1073.04065	214.61795	-1432.82837	1395.03601	-67.65223	-1470.85828	963.43134	-45.35713	-1485.86755	874.36029	-50.92611	-1484.75146	1269.81543	144.50325	-1424.04468	1533.24426	-93.06838	-1545.78906	1180.87231	278.33832	-1837.11938	165.23581	226.51082	-1879.44470	183.31328	318.13828	-1480.02454	1232.23108	146.39320	-1507.16675	954.70746	225.03317	-1489.28918	1090.55676	152.60597	-1313.02124	1607.84070	295.91519	-1503.94836	960.53052	106.30403	-1202.91675	504.37833	121.65118	-1328.17334	107.66817																						194.92653	-1413.48547	1644.30750						 
8	0.070	336.46002	-1521.54138	459.48880	234.47830	-1785.10840	29.13551	360.26971	-1136.52283	1088.29163	65.44803	-1262.01770	660.47955	474.60367	-1323.79260	1085.79565	412.78183	-1219.97131	1088.56421	459.80765	-1340.87561	1166.57568	338.06555	-1317.27783	904.02484	95.73492	-1221.42480	309.13409	345.97693	-1160.29297	1133.73950	374.51990	-1466.67749	630.04688	73.78532	-1346.51160	1386.78149	169.71205	-1125.64722	45.27366	334.19513	-1668.99438	327.98267	-9.59296	-1454.01355	977.20990	207.36688	-1276.14453	1323.55737	108.30705	-1310.62402	923.35883	362.35373	-1320.08813	1370.85840	284.62860	-1297.59570	1614.62415	198.76440	-1245.88818	1153.29321	161.87936	-1309.21472	70.15781	333.34579	-1082.52820	1128.45422	274.10071	-1404.55078	1541.05969	-69.82963	-1477.57568	1084.66382	214.58141	-1401.93567	1399.87817	-67.48654	-1443.83069	974.33655	-43.14312	-1460.83508	884.99994	-50.97057	-1456.23938	1280.20459	144.16077	-1393.85144	1538.39343	-93.09493	-1518.64844	1191.83899	285.01227	-1814.78735	170.61494	233.35616	-1853.63086	194.66942	319.87283	-1447.04773	1237.91724	149.23370	-1471.34998	959.70435	227.74309	-1456.61975	1095.46350	152.55176	-1281.78650	1612.47046	298.50717	-1467.52563	964.83325	106.42039	-1172.31091	507.98788	129.32481	-1261.90442	98.13400																						194.64804	-1382.61401	1649.47388						 
